name C:\Users\u0150099\Documents\master_thesis\3dpredictsim\Results\debug\Fal_s1_mtj_sc_cspx10_oy_o45z10_TrackAnkleQSubtQ_MTc2_MTPm_k1_d01_MTJm_nl_MG_exp_v2_table_d01_PF_Natali2010_ls146_FDB_ig21.mot
datacolumns 130
datarows 4
range 0.00000000 0.03347744
endheader
time	pelvis_tilt	pelvis_list	pelvis_rotation	pelvis_tx	pelvis_ty	pelvis_tz	hip_flexion_l	hip_adduction_l	hip_rotation_l	hip_flexion_r	hip_adduction_r	hip_rotation_r	knee_angle_l	knee_angle_r	ankle_angle_l	ankle_angle_r	subtalar_angle_l	subtalar_angle_r	mtj_angle_l	mtj_angle_r	mtp_angle_l	mtp_angle_r	lumbar_extension	lumbar_bending	lumbar_rotation	arm_flex_l	arm_add_l	arm_rot_l	arm_flex_r	arm_add_r	arm_rot_r	elbow_flex_l	elbow_flex_r	pro_sup_l	pro_sup_r	glut_med1_l/activation	glut_med2_l/activation	glut_med3_l/activation	glut_min1_l/activation	glut_min2_l/activation	glut_min3_l/activation	semimem_l/activation	semiten_l/activation	bifemlh_l/activation	bifemsh_l/activation	sar_l/activation	add_long_l/activation	add_brev_l/activation	add_mag1_l/activation	add_mag2_l/activation	add_mag3_l/activation	tfl_l/activation	pect_l/activation	grac_l/activation	glut_max1_l/activation	glut_max2_l/activation	glut_max3_l/activation	iliacus_l/activation	psoas_l/activation	quad_fem_l/activation	gem_l/activation	peri_l/activation	rect_fem_l/activation	vas_med_l/activation	vas_int_l/activation	vas_lat_l/activation	med_gas_l/activation	lat_gas_l/activation	soleus_l/activation	tib_post_l/activation	flex_dig_l/activation	flex_hal_l/activation	tib_ant_l/activation	per_brev_l/activation	per_long_l/activation	per_tert_l/activation	ext_dig_l/activation	ext_hal_l/activation	FDB_l/activation	ercspn_l/activation	intobl_l/activation	extobl_l/activation	glut_med1_r/activation	glut_med2_r/activation	glut_med3_r/activation	glut_min1_r/activation	glut_min2_r/activation	glut_min3_r/activation	semimem_r/activation	semiten_r/activation	bifemlh_r/activation	bifemsh_r/activation	sar_r/activation	add_long_r/activation	add_brev_r/activation	add_mag1_r/activation	add_mag2_r/activation	add_mag3_r/activation	tfl_r/activation	pect_r/activation	grac_r/activation	glut_max1_r/activation	glut_max2_r/activation	glut_max3_r/activation	iliacus_r/activation	psoas_r/activation	quad_fem_r/activation	gem_r/activation	peri_r/activation	rect_fem_r/activation	vas_med_r/activation	vas_int_r/activation	vas_lat_r/activation	med_gas_r/activation	lat_gas_r/activation	soleus_r/activation	tib_post_r/activation	flex_dig_r/activation	flex_hal_r/activation	tib_ant_r/activation	per_brev_r/activation	per_long_r/activation	per_tert_r/activation	ext_dig_r/activation	ext_hal_r/activation	FDB_r/activation	ercspn_r/activation	intobl_r/activation	extobl_r/activation	
          0.00000000	         -2.91350955	         -2.09076359	          5.36862002	          0.00000000	          0.90746537	         -0.00435558	         -9.39716149	         -0.10417785	          2.69067467	         27.85203404	          2.37717826	         -5.49547181	        -24.55404140	         -7.57824210	          4.35664951	          1.92489252	          3.06747702	         -0.71533473	         -0.58632377	          2.47694563	         25.79404519	         -3.53503668	         -4.94846022	          0.53112412	         -1.87320777	          4.72324962	        -14.08408770	         19.20597877	         -2.27289205	        -13.45568143	         10.41104297	         41.59262086	         21.46013934	         86.51662706	         86.51662706	          0.28058730	          0.05000019	          0.05000005	          0.58622309	          0.20605656	          0.06591235	          0.05000102	          0.05000010	          0.05000009	          0.05000008	          0.05000080	          0.05000046	          0.05000052	          0.05000041	          0.05000136	          0.05003981	          0.57927107	          0.05000187	          0.05000019	          0.05000119	          0.05000066	          0.05000035	          0.11731883	          0.34524017	          0.05000004	          0.05000014	          0.05000008	          0.70403269	          0.19436385	          0.20073784	          0.16116221	          0.43228794	          0.66639542	          0.24667106	          0.53785929	          0.57682614	          0.63425313	          0.05000000	          0.05000068	          0.48102608	          0.05000006	          0.05000002	          0.09892100	          0.87917674	          0.05000003	          0.05000003	          0.05000003	          0.05193861	          0.05036575	          0.06560248	          0.05003206	          0.05005413	          0.05004240	          0.25462336	          0.08340803	          0.08340812	          0.08340799	          0.05776940	          0.05358524	          0.06054400	          0.05001501	          0.05000252	          0.13806109	          0.05000083	          0.05000927	          0.08308273	          0.05006252	          0.05009264	          0.14214811	          0.10896489	          0.13913526	          0.13702957	          0.05992017	          0.06266450	          0.05000009	          0.05000078	          0.05000071	          0.05000064	          0.10504686	          0.07032068	          0.05556367	          0.12047508	          0.05000533	          0.05000058	          0.31512534	          0.11469655	          0.15792814	          0.24359917	          0.66820139	          0.39612998	          0.19507585	          0.05933017	          0.14904726	          0.13007766	
          0.01115915	         -2.91940830	         -2.17929463	          5.67919871	          0.01787928	          0.90619684	         -0.00404840	        -10.68103545	         -0.57272877	          2.54802901	         27.82180262	          2.47687869	         -5.44107587	        -23.85749882	         -7.87407038	          3.25431935	          1.68607351	          3.68363791	         -0.97714935	         -1.73350339	          2.53831651	         28.37591677	         -3.41760720	         -4.78021238	          0.73453073	         -1.98381238	          4.35387655	        -14.05056591	         19.32247433	         -3.15822472	        -13.44995606	          9.69593377	         43.12855425	         20.89990056	         86.51662706	         86.51662706	          0.23658579	          0.05000010	          0.05000003	          0.49429195	          0.17374294	          0.05557606	          0.05000150	          0.05000014	          0.05000011	          0.05000009	          0.05000047	          0.05000040	          0.05000065	          0.05000037	          0.05000166	          0.09330262	          0.52912486	          0.05000080	          0.05000017	          0.05000106	          0.05000060	          0.05000034	          0.09892103	          0.41538064	          0.05000003	          0.05000010	          0.05000005	          0.63195151	          0.19269788	          0.19551188	          0.15804956	          0.41197276	          0.63878831	          0.20798821	          0.50520259	          0.59133503	          0.56407190	          0.05000000	          0.05088798	          0.45760863	          0.05000004	          0.05000001	          0.08340827	          0.74130472	          0.05000001	          0.05000011	          0.05000007	          0.11092409	          0.05000083	          0.05929869	          0.05000081	          0.05000092	          0.05003366	          0.23209128	          0.07032811	          0.07032812	          0.07032812	          0.10539552	          0.05008651	          0.05801005	          0.05020771	          0.05000316	          0.17968913	          0.05000093	          0.05009439	          0.07032812	          0.05000083	          0.05000043	          0.20185824	          0.11006301	          0.11731757	          0.17518214	          0.07639950	          0.05929922	          0.05000001	          0.05000005	          0.05000004	          0.05000004	          0.09892062	          0.05929909	          0.05906472	          0.15724508	          0.05929900	          0.05929958	          0.32688170	          0.15702086	          0.17254345	          0.27029827	          0.67357909	          0.42907888	          0.16448424	          0.05002606	          0.14744326	          0.11731865	
          0.02231829	         -2.92317049	         -2.26883774	          5.96994029	          0.03610133	          0.90500160	         -0.00369786	        -11.90449387	         -1.05495768	          2.38272118	         27.84236591	          2.59118471	         -5.36211232	        -23.21852152	         -8.94200192	          1.91502695	          1.18955006	          4.29231475	         -1.31516071	         -3.02563369	          2.68244763	         31.30370233	         -3.38309623	         -4.60393078	          0.94929569	         -2.09201757	          3.91485646	        -14.00272187	         19.36924596	         -4.10296869	        -13.46075876	          9.16861856	         44.60917306	         20.44321438	         86.51662706	         86.51662706	          0.19948453	          0.05000012	          0.05000003	          0.41677734	          0.14649672	          0.05000024	          0.05000089	          0.05000007	          0.05000008	          0.05000005	          0.05000033	          0.05963184	          0.09149759	          0.05000046	          0.05000168	          0.07867179	          0.50190791	          0.05001327	          0.05000014	          0.05000081	          0.05000058	          0.05000035	          0.08340833	          0.43335733	          0.05000002	          0.05000013	          0.05000028	          0.53284938	          0.18683811	          0.18562969	          0.15237011	          0.37182834	          0.58987620	          0.17537159	          0.45999406	          0.56314580	          0.47561463	          0.05000000	          0.05000086	          0.39086662	          0.05000004	          0.05000001	          0.07032823	          0.62505366	          0.05000000	          0.05000026	          0.05000002	          0.13583540	          0.05000192	          0.05000022	          0.05000205	          0.05000309	          0.05000091	          0.19569484	          0.05929930	          0.05929930	          0.05929931	          0.09095097	          0.05000063	          0.05000025	          0.05000063	          0.05000191	          0.23832512	          0.07032846	          0.05000161	          0.05929936	          0.05000893	          0.11322768	          0.28868574	          0.09337031	          0.09892017	          0.20011579	          0.06480162	          0.05000059	          0.08340822	          0.05000033	          0.05000038	          0.05000050	          0.08340796	          0.05000001	          0.05000000	          0.13596092	          0.05000015	          0.05000040	          0.36527156	          0.23566051	          0.16332786	          0.32951628	          0.72903914	          0.53522915	          0.16709530	          0.05320993	          0.12432131	          0.09892080	
          0.03347744	         -2.92455687	         -2.35952352	          6.23987389	          0.05462279	          0.90387929	         -0.00329902	        -13.04112193	         -1.54369945	          2.21160570	         27.87591591	          2.72439968	         -5.25713815	        -22.67173930	        -10.79547926	          0.31117533	          0.64498816	          4.86711127	         -1.76314370	         -4.44990580	          2.74054794	         34.54093210	         -3.38237754	         -4.42071575	          1.17195134	         -2.19698199	          3.41011542	        -13.95718777	         19.38681470	         -5.09321653	        -13.48000079	          8.78630426	         46.05252049	         20.07204143	         86.51662706	         86.51662706	          0.16820147	          0.05000046	          0.05000058	          0.35141852	          0.12352323	          0.05000139	          0.05000084	          0.05000017	          0.05000031	          0.05000010	          0.05024843	          0.09414440	          0.15893141	          0.10304554	          0.05001673	          0.13201412	          0.42319953	          0.05936846	          0.05000083	          0.05001034	          0.05000230	          0.05000258	          0.07032832	          0.51145760	          0.06938803	          0.05000265	          0.05000028	          0.44928818	          0.15753827	          0.15651935	          0.12847552	          0.31351845	          0.50013520	          0.14786989	          0.38785804	          0.47483373	          0.40102901	          0.05000001	          0.05000007	          0.33324623	          0.05000002	          0.05000001	          0.05929939	          0.52703303	          0.06279701	          0.05000009	          0.05000009	          0.26963333	          0.05000008	          0.18891032	          0.05000032	          0.05000024	          0.05000026	          0.16500836	          0.05000003	          0.05000003	          0.05000002	          0.07668845	          0.07033176	          0.08023032	          0.05002003	          0.05000037	          0.28897838	          0.05929970	          0.07033328	          0.05000012	          0.05000008	          0.20745558	          0.37376485	          0.07872825	          0.08340762	          0.16873392	          0.07464856	          0.11757294	          0.07032819	          0.05929932	          0.05929932	          0.05929930	          0.07032810	          0.07032821	          0.06724672	          0.15616090	          0.05929930	          0.05929931	          0.45733370	          0.24157679	          0.17863805	          0.61553560	          0.74049283	          0.63756551	          0.29188001	          0.05971789	          0.11141630	          0.08340808	
